<mxfile host="www.draw.io" modified="2020-03-09T09:19:19.033Z" agent="Mozilla/5.0 (Windows NT 10.0; Win64; x64) AppleWebKit/537.36 (KHTML, like Gecko) Chrome/80.0.3987.122 Safari/537.36" etag="NVuyHGdwhjsGWXQvFJwk" version="12.8.1" type="github">
  <diagram id="AunSN8jirUo4fQzF3bQ8" name="Page-1">
    <mxGraphModel dx="1648" dy="748" grid="1" gridSize="10" guides="1" tooltips="1" connect="1" arrows="1" fold="1" page="1" pageScale="1" pageWidth="827" pageHeight="1169" math="0" shadow="0">
      <root>
        <mxCell id="0" />
        <mxCell id="1" parent="0" />
        <mxCell id="mqvseYgeadqSDyIu-_Aa-3" value="" style="edgeStyle=orthogonalEdgeStyle;rounded=0;orthogonalLoop=1;jettySize=auto;html=1;" edge="1" parent="1" source="mqvseYgeadqSDyIu-_Aa-1" target="mqvseYgeadqSDyIu-_Aa-2">
          <mxGeometry relative="1" as="geometry" />
        </mxCell>
        <mxCell id="mqvseYgeadqSDyIu-_Aa-7" value="" style="edgeStyle=orthogonalEdgeStyle;rounded=0;orthogonalLoop=1;jettySize=auto;html=1;" edge="1" parent="1" source="mqvseYgeadqSDyIu-_Aa-1" target="mqvseYgeadqSDyIu-_Aa-2">
          <mxGeometry relative="1" as="geometry" />
        </mxCell>
        <mxCell id="mqvseYgeadqSDyIu-_Aa-9" value="" style="edgeStyle=orthogonalEdgeStyle;rounded=0;orthogonalLoop=1;jettySize=auto;html=1;" edge="1" parent="1" source="mqvseYgeadqSDyIu-_Aa-1" target="mqvseYgeadqSDyIu-_Aa-8">
          <mxGeometry relative="1" as="geometry">
            <Array as="points">
              <mxPoint x="410" y="470" />
            </Array>
          </mxGeometry>
        </mxCell>
        <mxCell id="mqvseYgeadqSDyIu-_Aa-1" value="&lt;b&gt;Styregruppe&lt;/b&gt;&lt;br&gt;Investor" style="rounded=0;whiteSpace=wrap;html=1;" vertex="1" parent="1">
          <mxGeometry x="350" y="380" width="120" height="60" as="geometry" />
        </mxCell>
        <mxCell id="mqvseYgeadqSDyIu-_Aa-8" value="&lt;b&gt;Referencegruppe&lt;/b&gt;&lt;br&gt;Vejledere og lÃ¦rere" style="rounded=0;whiteSpace=wrap;html=1;" vertex="1" parent="1">
          <mxGeometry x="490" y="440" width="120" height="60" as="geometry" />
        </mxCell>
        <mxCell id="mqvseYgeadqSDyIu-_Aa-5" value="" style="edgeStyle=orthogonalEdgeStyle;rounded=0;orthogonalLoop=1;jettySize=auto;html=1;" edge="1" parent="1" source="mqvseYgeadqSDyIu-_Aa-2" target="mqvseYgeadqSDyIu-_Aa-4">
          <mxGeometry relative="1" as="geometry" />
        </mxCell>
        <mxCell id="mqvseYgeadqSDyIu-_Aa-2" value="&lt;b&gt;Projektleder&lt;/b&gt;&lt;br&gt;Christopher&lt;br&gt;Josefine&lt;br&gt;Niklas" style="rounded=0;whiteSpace=wrap;html=1;" vertex="1" parent="1">
          <mxGeometry x="350" y="490" width="120" height="60" as="geometry" />
        </mxCell>
        <mxCell id="mqvseYgeadqSDyIu-_Aa-4" value="&lt;b&gt;Projektgruppe&lt;/b&gt;&lt;br&gt;Udvikler, tester" style="rounded=0;whiteSpace=wrap;html=1;" vertex="1" parent="1">
          <mxGeometry x="350" y="585" width="120" height="60" as="geometry" />
        </mxCell>
      </root>
    </mxGraphModel>
  </diagram>
</mxfile>
